<?xml version="1.0" encoding="UTF-8"?>
<svg width="192" height="192" viewBox="0 0 192 192" xmlns="http://www.w3.org/2000/svg">
  <defs>
    <linearGradient id="grad1" x1="0%" y1="0%" x2="100%" y2="100%">
      <stop offset="0%" style="stop-color:#667eea;stop-opacity:1" />
      <stop offset="100%" style="stop-color:#764ba2;stop-opacity:1" />
    </linearGradient>
  </defs>
  
  <!-- Background -->
  <rect width="192" height="192" rx="24" fill="url(#grad1)"/>
  
  <!-- Plant/Leaf Icon -->
  <g transform="translate(48, 48)">
    <!-- Stem -->
    <rect x="46" y="60" width="4" height="36" fill="#4ade80"/>
    
    <!-- Main Leaf -->
    <ellipse cx="48" cy="48" rx="32" ry="24" fill="#22c55e"/>
    
    <!-- Leaf Details -->
    <path d="M20 48 Q48 32 76 48 Q48 64 20 48" fill="#16a34a"/>
    
    <!-- Small Tech Elements -->
    <circle cx="32" cy="40" r="3" fill="#ffffff" opacity="0.8"/>
    <circle cx="56" cy="44" r="2" fill="#ffffff" opacity="0.6"/>
    <circle cx="40" cy="56" r="2" fill="#ffffff" opacity="0.7"/>
    
    <!-- Sensor Lines -->
    <line x1="25" y1="35" x2="30" y2="40" stroke="#ffffff" stroke-width="1" opacity="0.5"/>
    <line x1="65" y1="40" x2="70" y2="35" stroke="#ffffff" stroke-width="1" opacity="0.5"/>
  </g>
  
  <!-- IoT Signal Waves -->
  <g transform="translate(140, 40)" opacity="0.6">
    <path d="M0 12 Q6 6 12 12" fill="none" stroke="#ffffff" stroke-width="2"/>
    <path d="M0 16 Q8 8 16 16" fill="none" stroke="#ffffff" stroke-width="2"/>
    <path d="M0 20 Q10 10 20 20" fill="none" stroke="#ffffff" stroke-width="2"/>
  </g>
</svg>
